<svg xmlns="http://www.w3.org/2000/svg" width="128" height="104" viewBox="0 0 128 104">
  <defs>
    <linearGradient id="wood" x1="0" y1="0" x2="1" y2="1">
      <stop offset="0" stop-color="#8b5a2b"/>
      <stop offset="0.55" stop-color="#5b351c"/>
      <stop offset="1" stop-color="#321b10"/>
    </linearGradient>
  </defs>
  <path d="M12 20h104v72H12z" fill="#17130f" stroke="#d09343" stroke-width="4"/>
  <path d="M18 26h92v60H18z" fill="url(#wood)" stroke="#3b2414" stroke-width="3"/>
  <path d="M25 28l30 56M103 28L73 84M18 50h92M18 68h92" fill="none" stroke="#b77732" stroke-width="5" opacity=".72"/>
  <path d="M8 14h112v16H8zM8 84h112v14H8z" fill="#35322b" stroke="#a79a79" stroke-width="3"/>
  <path d="M55 47h18v20H55z" fill="#d2a64c" stroke="#241a0d" stroke-width="3"/>
  <path d="M61 51h6v8h-6z" fill="#2b261d"/>
  <path d="M4 32h10v48H4zM114 32h10v48h-10z" fill="#26251f" stroke="#7d745c" stroke-width="2"/>
</svg>
